<svg version="1.1" xmlns="http://www.w3.org/2000/svg" xmlns:xlink="http://www.w3.org/1999/xlink" width="134.98681" height="237.85921" viewBox="0,0,134.98681,237.85921"><defs><linearGradient x1="254.69831" y1="215.44777" x2="254.69831" y2="282.20072" gradientUnits="userSpaceOnUse" id="color-1"><stop offset="0" stop-color="#e4e4e4"/><stop offset="1" stop-color="#dfdfdf"/></linearGradient><linearGradient x1="219.69831" y1="213.69777" x2="219.69831" y2="280.45072" gradientUnits="userSpaceOnUse" id="color-2"><stop offset="0" stop-color="#e4e4e4"/><stop offset="1" stop-color="#dbdbdb"/></linearGradient><linearGradient x1="238.90139" y1="111.67659" x2="238.90139" y2="227.74135" gradientUnits="userSpaceOnUse" id="color-3"><stop offset="0" stop-color="#e4e4e4"/><stop offset="1" stop-color="#dbdbdb"/></linearGradient><radialGradient cx="239.09051" cy="92.10218" r="22.4351" gradientUnits="userSpaceOnUse" id="color-4"><stop offset="0" stop-color="#756756"/><stop offset="1" stop-color="#40352e"/></radialGradient></defs><g transform="translate(-172.33435,-61.0704)"><g data-paper-data="{&quot;isPaintingLayer&quot;:true}" fill-rule="nonzero" stroke-linecap="butt" stroke-linejoin="miter" stroke-miterlimit="10" stroke-dasharray="" stroke-dashoffset="0" style="mix-blend-mode: normal"><path d="M191.06686,117.28472c1.07617,-1.2498 2.19382,-2.45666 3.8018,-3.11411c1.78274,-0.72889 3.8151,-0.53844 5.71051,-0.88029c6.21549,-1.121 13.20915,-0.55115 19.45612,0.22312c5.9518,0.4994 11.94659,-0.20102 17.88888,0.24092c10.21457,0.75969 20.37189,1.3792 30.52945,2.25192c4.25887,0.36592 8.93153,1.51752 12.99508,2.8358c1.29649,0.4206 2.88007,0.42795 3.84546,1.39014c0.95945,0.95625 0.92215,2.54744 1.38322,3.82117c4.7586,15.46041 2.26452,32.99881 1.09352,48.86217c-0.40309,5.46058 0.20937,10.96585 -0.24667,16.43832c-0.00291,8.54983 -2.12306,16.76398 -2.49923,25.2293c-0.19282,4.33931 1.01099,6.41394 -3.47447,8.94741c-1.63358,0.92267 -6.56283,0.2194 -8.52414,0.2194c-6.58333,0 -13.16667,0 -19.75,0c-14.39559,0 -28.80904,0.5 -43.25,0.5c-7.504,0 -16.02064,1.40856 -22.77866,-2.22144c-1.12823,-0.47074 -2.5041,-0.56426 -3.38471,-1.41223c-4.04504,-3.89514 -1.82354,-11.95791 -0.77695,-16.65933c0.47867,-2.15023 0.51873,-4.38336 1.00719,-6.53138c1.09366,-4.80937 3.19405,-9.51092 4.22384,-14.37497c0.6533,-3.08576 -0.1849,-6.28971 0.52834,-9.38418c0.41527,-1.80169 1.29614,-3.51363 1.43823,-5.3571c0.26744,-3.46984 -0.00728,-7.07867 -0.00728,-10.55937c0,-8.93649 -0.63762,-17.9632 -0.99784,-26.89611c-0.07976,-1.97799 -0.53897,-4.97889 -0.42927,-7.74379c-1.39571,-1.52784 0.00656,-3.21057 0.00656,-3.21057l0.96521,-1.1574c0.24213,-0.45088 0.53845,-0.85485 0.89897,-1.19859c0.10752,-0.10251 0.2236,-0.18792 0.34685,-0.25883z" fill="#f1f1f1" stroke="none" stroke-width="0.5"/><g><g stroke="none" stroke-width="0.5"><path d="M257.26034,298.66195c-0.80066,0.10393 -1.67563,0.05701 -2.60024,-0.173c-1.1565,-0.2877 -2.09534,-1.18902 -2.95062,-2.01892c-0.10754,-0.10434 -0.21687,-0.2088 -0.32706,-0.31368c-2.54185,-1.62636 -4.68691,-4.51605 -5.75397,-6.53079c-0.6784,-1.28091 -1.8782,-2.495 -1.83184,-3.94373c0.00704,-0.21998 0.03881,-0.44687 0.09321,-0.67905c-0.58832,-2.10974 -0.06262,-4.06861 1.64837,-6.71813c2.29668,-3.55648 6.36386,-3.30032 9.89174,-1.82263c0.20551,0.02104 0.4022,0.0582 0.58869,0.11259c0.50036,0.14594 1.01124,0.47553 1.51,0.93775c1.18928,0.69442 2.23863,1.4832 3.03017,2.2341c0.91213,0.8653 2.17649,1.50016 2.68328,2.65076c0.25748,0.58458 0.30069,1.22065 0.28526,1.87081c3.48623,4.74147 0.255,9.66383 -3.32586,13.75739c0,0 -1.32071,1.49938 -2.94114,0.63653z" fill="#dfdfdf"/><path d="M250.41149,281.95623c0,0 -1.28949,0 -2.01628,-0.92611l-0.23248,-0.0863c-1.96792,-0.20312 -4.92045,-0.31795 -6.54384,-1.52026c-0.18365,-0.13601 -0.34342,-0.29416 -0.48624,-0.46804c-1.99625,-0.12552 -2.20875,-2.25053 -2.20875,-2.25053c-0.37692,-3.81456 -1.03913,-8.28948 1.19745,-11.69368c0.42376,-0.64498 1.41132,-0.78109 1.81272,-1.44022c1.19868,-1.96831 -1.72311,-7.05541 -1.99607,-9.00182c-0.17041,-1.21519 0.00765,-5.45962 0.33433,-6.59916c0.45925,-1.60193 1.51972,-3.05853 1.64769,-4.72008c0.13617,-1.76796 0.57167,-5.23688 -0.09197,-6.89657c-0.31052,-0.77657 -1.24095,-1.21467 -1.50335,-2.00878c-0.39814,-1.20486 -0.27402,-2.52304 -0.41103,-3.78456c0,-1.6159 0.04892,-3.23295 0.15006,-4.84615c-0.65222,-0.73702 -0.65222,-1.75774 -0.65222,-1.75774l0.06688,-3.07438c0.66345,-1.25511 0.95709,-2.79176 1.99034,-3.76533c2.05759,-1.93874 4.25347,-1.64683 6.69277,-1.66029c7.38176,-0.04074 14.06868,1.25492 19.44995,6.41692c0.75432,0.72359 1.91359,1.08304 2.41507,2.00015c0.36924,0.67526 0.59935,1.32584 0.72303,1.95979c-0.04249,0.79746 -0.03956,1.62075 0.00446,2.46671c-0.2969,1.75656 -1.12553,3.46343 -1.68191,5.31896c-2.31874,9.28183 -1.32715,18.85117 -2.42071,28.31198c-0.14144,1.22369 -0.21889,2.5051 -0.74232,3.6202c-0.74529,1.58773 -2.4569,2.73165 -2.80767,4.45016c-0.8109,3.97273 -0.17178,9.13418 -4.46187,11.63272c-1.01508,0.59118 -2.31951,0.37333 -3.47927,0.55999c0,0 -0.70305,0.0703 -1.39901,-0.23759c-1.17467,0 -2.76113,0 -3.34975,0z" fill="url(#color-1)"/></g><path d="M264.88449,244.56369c0,0 -0.06956,-0.0087 -0.16954,-0.0399c-0.55312,0 -1.08184,0 -1.42071,0c-6.70459,0 -12.90995,-2.25485 -19.57323,-2.61766c0.0012,-0.06381 0.0018,-0.12776 0.0018,-0.19186c0,-0.62038 -0.05649,-1.22758 -0.16461,-1.81671c6.73284,0.33415 12.9922,2.62623 19.73605,2.62623c0.77778,0 1.55555,0 2.33333,0h1c0,0 0.00167,0 0.00487,0.00007c-0.1504,0.51352 -0.23107,1.05683 -0.23107,1.61898c0,0.21073 0.01134,0.41882 0.03343,0.62368c-0.51633,-0.07091 -1.03317,-0.1382 -1.55032,-0.20283z" fill="#e42e2e" stroke="#e42e2e" stroke-width="2.5"/></g><g><g stroke="none" stroke-width="0.5"><path d="M214.57349,295.63158c-0.7831,-0.19649 -1.5801,-0.56059 -2.35625,-1.11321c-0.9708,-0.69123 -1.51435,-1.87375 -2.0063,-2.95922c-0.06186,-0.13648 -0.12535,-0.27371 -0.18948,-0.41165c-1.7697,-2.44423 -2.70751,-5.91872 -2.96264,-8.18426c-0.1622,-1.44036 -0.83405,-3.00949 -0.26037,-4.3406c0.08711,-0.20211 0.19977,-0.40161 0.33542,-0.59775c0.22516,-2.17863 1.43168,-3.8089 3.99409,-5.6478c3.43955,-2.46836 7.13039,-0.74057 9.87205,1.92641c0.18353,0.09483 0.35295,0.20145 0.50656,0.32035c0.41216,0.31903 0.76685,0.81283 1.0617,1.42559c0.85235,1.0817 1.53996,2.19997 2.00153,3.18858c0.53189,1.13922 1.47591,2.19299 1.52614,3.44925c0.02552,0.63826 -0.1672,1.24597 -0.41965,1.84531c1.5077,5.68877 -3.30169,9.08589 -8.13288,11.58375c0,0 -1.77805,0.91157 -2.96993,-0.48476z" fill="#dfdfdf"/><path d="M215.41149,280.20623c0,0 -1.28949,0 -2.01628,-0.92611l-0.23248,-0.0863c-1.96793,-0.20312 -4.92045,-0.31795 -6.54384,-1.52026c-0.18365,-0.13601 -0.34342,-0.29416 -0.48624,-0.46804c-1.99625,-0.12552 -2.20875,-2.25053 -2.20875,-2.25053c-0.37692,-3.81456 -1.03914,-8.28948 1.19744,-11.69368c0.42376,-0.64498 1.41132,-0.78109 1.81272,-1.44022c1.19868,-1.96831 -1.72312,-7.05541 -1.99607,-9.00182c-0.17041,-1.21519 0.00764,-5.45962 0.33433,-6.59916c0.45925,-1.60193 1.51972,-3.05853 1.64769,-4.72008c0.13617,-1.76796 0.57167,-5.23688 -0.09197,-6.89657c-0.31052,-0.77657 -1.24095,-1.21467 -1.50335,-2.00878c-0.39814,-1.20486 -0.27402,-2.52304 -0.41103,-3.78456c0,-1.6159 0.04892,-3.23295 0.15006,-4.84615c-0.65222,-0.73702 -0.65222,-1.75774 -0.65222,-1.75774l0.06688,-3.07438c0.66345,-1.25511 0.95709,-2.79176 1.99034,-3.76533c2.05759,-1.93874 4.25347,-1.64683 6.69278,-1.66029c7.38177,-0.04074 14.06868,1.25492 19.44995,6.41692c0.75432,0.72359 1.91359,1.08304 2.41507,2.00015c1.93555,3.53977 0.04837,6.40117 -0.95441,9.74546c-2.31874,9.28183 -1.32714,18.85117 -2.42071,28.31198c-0.14145,1.22369 -0.21889,2.5051 -0.74232,3.6202c-0.74529,1.58773 -2.4569,2.73165 -2.80768,4.45016c-0.81089,3.97273 -0.17178,9.13418 -4.46186,11.63272c-1.01508,0.59118 -2.31951,0.37333 -3.47928,0.55999c0,0 -0.70305,0.0703 -1.39901,-0.23759c-1.17467,0 -2.76113,0 -3.34975,0z" fill="url(#color-2)"/></g><path d="M228.23589,240.79175c-3.4715,-0.09422 -7.06363,0.01151 -10.44823,-0.72835c-3.41548,-0.74661 -5.46958,-2.24565 -9.17056,-1.81995c0.00012,-0.68993 -0.12199,-1.35287 -0.34627,-1.96766c0.05082,-0.01148 0.0821,-0.01509 0.0821,-0.01509c3.92413,-0.44308 6.24659,1.08108 9.84484,1.8452c3.27378,0.69522 6.73563,0.59549 10.09238,0.68659c1.18732,0.03222 2.29839,0.01053 3.45452,-0.09212c0.02138,0.54703 0.08693,1.08327 0.19325,1.60512c-0.04518,0.12714 -0.08037,0.25901 -0.10461,0.39467c-1.20104,0.1027 -2.36591,0.12501 -3.59743,0.09159z" fill="#e42e2e" stroke="#e42e2e" stroke-width="2.5"/></g><path d="M201.54032,113.88196c0.37858,-0.75716 0.88536,-1.12975 1.3901,-1.29139c-0.37531,-5.31091 -0.40861,-10.67044 -0.65093,-15.96605c-0.10368,-2.26584 -1.07575,-6.69248 0.01083,-8.74257c1.67451,-3.15936 5.86934,-3.67168 8.8878,-4.10759c5.48443,-0.79203 11.0428,-1.02438 16.59827,-1.02438c11.24564,0 22.64112,0.5191 33.87547,0.0031c4.89199,-0.22469 13.27358,-1.98224 17.1423,1.72913c3.24528,3.11328 2.73223,8.26373 2.73223,12.26777c-0.04885,6.25379 -2.48834,12.2228 -2.5,18.5c-0.0041,2.20893 1.67899,5.09479 0.0871,6.62623c-2.33315,2.24456 -7.07061,2.22243 -10.16511,2.12256c-10.75761,-0.34719 -21.36648,-1.49878 -32.17199,-1.49878c-11.34242,-0.01499 -23.07446,-0.24208 -33.53451,-4.97408l-0.58353,-0.28985c0,0 -2.23607,-1.11803 -1.11803,-3.3541z" fill="#f1f1f1" stroke="none" stroke-width="0.5"/><path d="M304.63426,211.63457l-0.60647,-1.23213c-0.14909,-0.54469 -0.30493,-0.98542 -0.47656,-1.38433c-0.19702,0.26595 -0.44158,0.52898 -0.72565,0.78615c0.43066,1.59606 0.89484,3.31628 1.24842,4.62671c0,0 0.39077,1.44821 -1.05743,1.83898c-1.4482,0.39077 -1.83898,-1.05744 -1.83898,-1.05744l-0.26051,-0.96547c-0.24472,-0.90695 -0.48944,-1.81389 -0.73416,-2.72084c-0.29605,0.14614 -0.6017,0.28607 -0.91427,0.41877c0.35651,1.3391 0.66937,2.67995 0.81177,4.07795l0.21598,0.72207c0,0 0.39077,1.44821 -1.05743,1.83898c-1.4482,0.39077 -1.83898,-1.05743 -1.83898,-1.05743l-0.30505,-1.20887c-0.11098,-1.16783 -0.36855,-2.29744 -0.66799,-3.42095c-0.3554,0.08863 -0.70989,0.16562 -1.06015,0.22976c0.09153,1.17673 0.1128,2.35149 0.23876,3.58602l-0.04127,1.02384c0,0 -0.08725,1.49746 -1.58471,1.41021c-1.49746,-0.08724 -1.41021,-1.5847 -1.41021,-1.5847l0.0507,-0.55462c-0.1223,-1.27541 -0.11684,-2.47642 -0.2201,-3.68487c-0.6211,-0.05184 -1.17915,-0.1771 -1.64326,-0.3872c-0.05079,-0.023 -0.10165,-0.04692 -0.1525,-0.07174c0.01268,0.32705 0.0456,0.66778 0.10258,1.02937l-0.2688,2.44419c0,0 -0.28174,1.98006 -2.2618,1.69832c-1.98005,-0.28173 -1.69832,-2.2618 -1.69832,-2.2618l0.26761,-1.32572c-0.28731,-2.25014 -0.01588,-3.96383 0.49217,-6.02625c-0.08106,-0.15125 -0.1506,-0.32574 -0.20486,-0.52681c-0.52103,-1.93094 1.40992,-2.45197 1.40992,-2.45197c0.76019,-0.20512 1.53589,-0.36256 2.30327,-0.54522c0.13842,-0.05707 0.27415,-0.11514 0.40541,-0.17558c0.61108,-0.28135 1.27399,-0.42032 1.93549,-0.56318c1.75525,-0.81674 3.00814,-2.53145 4.76682,-3.26677c1.10994,-0.46408 2.36252,-1.30475 3.49528,-0.89954c1.42092,0.50829 2.80237,3.96875 2.85606,5.45087c0.0072,0.19886 0.01551,0.40183 0.02094,0.60653c0.70026,1.24152 1.2727,2.1387 1.67201,3.64381l0.52754,1.05129c0,0 0.44479,0.89563 -0.45083,1.34043c-0.89563,0.4448 -1.34043,-0.45083 -1.34043,-0.45083z" data-paper-data="{&quot;index&quot;:null}" fill="#e4e4e4" stroke="#e4e4e4" stroke-width="2"/><path d="M174.02532,211.3354c-0.89563,-0.4448 -0.45084,-1.34043 -0.45084,-1.34043l0.52754,-1.05129c0.3993,-1.50511 0.97175,-2.40229 1.67201,-3.64381c0.00544,-0.2047 0.01373,-0.40767 0.02094,-0.60653c0.05369,-1.48212 1.43514,-4.94259 2.85605,-5.45087c1.13277,-0.40521 2.38534,0.43546 3.49528,0.89954c1.75868,0.73532 3.01156,2.45003 4.76682,3.26677c0.6615,0.14285 1.32442,0.28183 1.93549,0.56318c0.13126,0.06044 0.26699,0.11851 0.40541,0.17558c0.76738,0.18266 1.54308,0.3401 2.30327,0.54522c0,0 1.93094,0.52103 1.40991,2.45197c-0.05426,0.20107 -0.12379,0.37555 -0.20485,0.52681c0.50806,2.06241 0.77948,3.77611 0.49218,6.02625l0.26761,1.32572c0,0 0.28173,1.98006 -1.69832,2.2618c-1.98005,0.28173 -2.2618,-1.69832 -2.2618,-1.69832l-0.26881,-2.44419c0.05698,-0.36158 0.08991,-0.70231 0.10259,-1.02937c-0.05085,0.02482 -0.10171,0.04874 -0.1525,0.07174c-0.4641,0.2101 -1.02217,0.33537 -1.64326,0.3872c-0.10326,1.20845 -0.09779,2.40946 -0.22009,3.68487l0.0507,0.55462c0,0 0.08724,1.49746 -1.41021,1.5847c-1.49746,0.08724 -1.58471,-1.41021 -1.58471,-1.41021l-0.04127,-1.02384c0.12596,-1.23453 0.14722,-2.40929 0.23875,-3.58602c-0.35027,-0.06414 -0.70475,-0.14113 -1.06015,-0.22976c-0.29943,1.12351 -0.55701,2.25311 -0.66799,3.42095l-0.30505,1.20887c0,0 -0.39077,1.44821 -1.83898,1.05743c-1.44821,-0.39077 -1.05743,-1.83898 -1.05743,-1.83898l0.21598,-0.72207c0.1424,-1.398 0.45527,-2.73885 0.81177,-4.07795c-0.31258,-0.1327 -0.61822,-0.27263 -0.91427,-0.41877c-0.24472,0.90695 -0.48945,1.81389 -0.73417,2.72084l-0.26051,0.96547c0,0 -0.39077,1.44821 -1.83897,1.05744c-1.44821,-0.39077 -1.05744,-1.83898 -1.05744,-1.83898c0.35359,-1.31043 0.81776,-3.03065 1.24843,-4.62671c-0.28407,-0.25717 -0.52863,-0.5202 -0.72565,-0.78615c-0.17164,0.39891 -0.32748,0.83964 -0.47657,1.38433l-0.60647,1.23213c0,0 -0.4448,0.89563 -1.34043,0.45083z" fill="#e4e4e4" stroke="#e4e4e4" stroke-width="2"/><path d="M282.837,126.13717c5.60305,5.00621 10.6067,9.74476 13.62106,16.85616c2.64038,6.22908 2.49031,13.57522 4.1304,20.12456c2.4891,9.16402 3.83123,18.13105 3.83123,27.6321c0,2.57316 -0.05054,5.0617 -0.25311,7.62454c-0.08947,1.13197 0.30057,2.38857 -0.2163,3.3996c-2.34227,4.58166 -9.59868,7.21761 -14.2806,6.97586c-1.25952,-0.06503 -2.69588,0.3192 -3.76782,-0.34533c-1.84188,-1.14183 -2.78063,-4.91982 -3.39843,-6.763c-2.22633,-11.03741 -2.22498,-22.16432 -4.28662,-33.15853c-1.27817,-6.81617 -3.78989,-13.87005 -6.14184,-20.36577c-1.53694,-4.24479 -4.3374,-7.92104 -5.85386,-12.17729c-3.11091,-4.10355 -7.62868,-10.971 -2.06265,-15.43161c0.70601,-0.56579 5.35638,-1.42685 6.77093,-1.70991l2.24029,-0.04855c0,0 1.49874,0 2.17536,1.16043c3.45081,1.00338 4.95936,3.96393 7.49195,6.22675z" data-paper-data="{&quot;index&quot;:null}" fill="#dadada" stroke="none" stroke-width="0.5"/><path d="M206.10104,117.91042c0.67662,-1.16043 2.17535,-1.16043 2.17535,-1.16043l2.24029,0.04855c1.41455,0.28306 6.06493,1.14412 6.77093,1.70991c5.56603,4.46061 1.04825,11.32806 -2.06265,15.43161c-1.51646,4.25625 -4.31691,7.9325 -5.85385,12.17729c-2.35196,6.49572 -4.86367,13.5496 -6.14185,20.36577c-2.06164,10.99421 -2.06029,22.12113 -4.28662,33.15854c-0.6178,1.84319 -1.55655,5.62117 -3.39843,6.763c-1.07193,0.66452 -2.5083,0.28029 -3.76782,0.34533c-4.68192,0.24175 -11.93833,-2.3942 -14.2806,-6.97586c-0.51687,-1.01103 -0.12682,-2.26764 -0.2163,-3.3996c-0.20256,-2.56284 -0.25311,-5.05138 -0.25311,-7.62454c0,-9.50106 1.34214,-18.46808 3.83123,-27.6321c1.6401,-6.54934 1.49003,-13.89548 4.1304,-20.12456c3.01437,-7.1114 8.01801,-11.84994 13.62106,-16.85616c2.53259,-2.26282 4.04114,-5.22338 7.49195,-6.22675z" fill="#dadada" stroke="none" stroke-width="0.5"/><path d="M264.1859,110.31933c0.50237,0.88979 0.23991,1.9318 0.23991,1.9318c-3.28115,12.65588 -16.21097,16.43286 -27.99437,17.21116c-4.01754,0.26536 -9.0102,0.24528 -12.77014,-1.42973c-2.88653,-1.28592 -4.62973,-3.89752 -6.99175,-5.867c-2.52598,-3.12013 -4.82622,-6.70967 -5.33493,-10.82879c-0.45209,-3.66065 0.13341,-7.69717 0.19962,-11.35823c0.1128,-6.23592 0.35629,-12.37069 1.01237,-18.60534c0.41324,-3.92701 0.10717,-9.73018 2.31905,-13.21214c2.06314,-3.24782 5.08546,-3.83727 8.38656,-5.06965c7.61364,-1.90631 17.2122,-3.24225 24.85869,-0.31584c13.6168,5.21133 17.85491,19.23282 17.65375,32.51639c-0.52269,5.00951 -1.05157,10.01836 -1.57877,15.02738z" fill="#efefef" stroke="none" stroke-width="0.5"/><path d="M270.36467,224.09067c-1.5979,2.99527 -4.12004,3.86705 -6.81981,3.60738c-4.74541,-0.45643 -9.3784,-3.41597 -14.10499,-4.26935c-3.37187,-0.60878 -6.41108,0.45211 -9.74583,0.77025c-4.7205,0.45034 -9.42186,-0.50009 -14.12395,-0.49272c-2.64353,-0.00091 -7.44033,0.69212 -10.02405,-0.37254c-0.94607,-0.38984 -1.54254,-1.57757 -2.45406,-2.07187c-0.14936,-0.08099 -1.10983,-0.21833 -2.0528,-0.33795c-1.25882,1.6917 -2.79809,0.25574 -2.79809,0.25574c-0.28942,-0.27089 -0.57552,-0.54327 -0.85675,-0.81817c-0.21303,-0.13657 -0.42316,-0.32723 -0.59465,-0.5934c-3.03345,-3.09556 -5.32883,-6.59439 -4.75045,-11.92484c0.29074,-2.67956 1.23835,-4.62793 1.22851,-7.38697c-0.02139,-5.99203 -0.40798,-12.12173 -0.20711,-18.08912c0.08693,-2.58235 0.2748,-5.04357 0.31067,-7.52632c1.72804,-9.0851 1.96739,-19.24549 1.96739,-28.03178c0,-2.12667 -0.39907,-4.93716 -1.11374,-7.32584c-0.05132,-0.37371 -0.09178,-0.72675 -0.11506,-1.05243c-0.06578,-0.91997 -0.10365,-1.85225 -0.12251,-2.79136c0.02582,-0.29301 0.03901,-0.58966 0.03901,-0.88938c0.20844,-1.27595 0.15918,-2.67907 -0.01056,-4.1133c0.0321,-1.49095 0.07228,-2.9749 0.08564,-4.43047c0.02596,-2.82723 -0.26669,-4.47624 1.71518,-6.83971c2.46225,-2.93635 7.04767,-2.66029 10.16551,-2.66029c3.14389,0 6.44407,0.11149 9.53237,-0.68494c1.70745,-0.44033 3.23571,-1.67899 4.95645,-2.03727c2.75151,-0.57291 6.02057,0.78725 8.68335,-0.58749c0.8062,-0.41623 1.38306,-1.48266 2.25113,-1.63842c4.39624,-0.78888 6.40183,4.38694 10.21067,5.24667c1.50486,0.33967 3.06236,-0.04855 4.59362,-0.04855c4.07896,0 8.15792,-0.00269 12.23687,0.00629c1.37306,0.23463 5.17043,0.65962 6.34919,1.77638c2.03936,1.93211 1.66231,4.05773 2.19579,6.6147c0.77198,3.7001 0.88361,5.83536 0.68543,9.69175c-0.06194,1.20522 0.27582,2.52758 -0.15733,3.61759c-0.74244,1.86828 -2.96288,2.61378 -3.49166,4.58386c-0.91955,3.426 1.5454,8.10261 1.76835,11.5188c0.21173,3.2443 -0.36793,6.66494 -0.00955,9.88517c0.50371,4.52617 1.13385,8.18737 0.83794,12.81664c-0.41267,3.71837 -1.00754,7.37811 -1.46744,11.08274c-0.35636,2.87061 0.12714,6.27088 -0.46368,9.03319c-0.46317,2.16542 -1.47667,2.28686 -1.61132,4.37347c-0.23892,3.70234 0.82941,7.52665 0.41175,11.30488c-0.24852,2.24817 -0.93404,4.19763 -1.56891,6.2989l-1.1103,1.66341c0,0 -0.0762,0.09141 -0.2113,0.21187c0.05453,0.93862 0.16416,1.89928 -0.23889,2.6548z" fill="url(#color-3)" stroke="none" stroke-width="0.5"/><path d="M213.53195,125.86534c3.42953,2.21919 4.94849,5.56163 7.77272,8.20676c1.68072,1.57414 6.03646,1.49176 8.13064,1.93962c0,0 0.2344,0.05023 0.54248,0.19216c7.06503,-0.03975 14.37032,-0.5643 21.3899,0.01086c1.01041,0.08279 1.99346,0.37896 3,0.5c1.40136,0.16852 3.0507,-0.40382 4.24711,0.29352c3.87483,-1.42758 4.90548,-3.90218 7.60202,-7.12311c1.9384,-2.31537 4.56953,-2.85077 6.72663,-4.74506c1.20992,-1.06251 0.9504,-3.1592 1.9556,-4.41713c0.37719,-0.47203 0.85802,-0.83323 1.37482,-1.15596c0.74732,0.91604 1.65377,1.69714 2.67718,2.30115c0.24032,0.42057 0.71029,0.8033 1.30675,1.15809c-2.23674,1.59462 -1.42498,3.37548 -3.87827,5.74611c-1.81611,1.75492 -4.70513,2.24174 -6.27337,4.25494c-2.95834,3.7977 -4.85926,6.58 -9.01392,8.361c0.00419,0.01291 0.00839,0.0258 0.01259,0.03868c0.313,0.9602 0.04631,2.01938 0.05666,3.02925c0.035,3.41577 0,6.83403 0,10.25c-0.19484,2.54913 0.11072,3.9603 -0.59439,4.99961c2.29142,3.5097 2.55037,7.6843 3.30728,12.07128c0.83648,4.84816 0.53145,9.66723 0.284,14.55365c-0.39145,7.72989 -0.37668,15.93776 0.14511,23.64861c2.07412,3.64414 4.28951,6.85248 8.16075,8.5025c0.14756,0.02048 0.33771,0.05732 0.54429,0.12358c-0.96675,1.37047 -1.59633,2.94563 -1.94603,4.68403l-0.07949,-0.01206c-5.61508,-2.29271 -8.68232,-6.60406 -11.46353,-11.84433c-0.86644,-8.19945 -0.76269,-17.09491 -0.35489,-25.35139c0.22247,-4.50427 0.56735,-8.97896 -0.216,-13.44635c-0.60759,-3.46502 -0.50006,-8.10281 -2.89365,-10.80377c-1.67013,0.19164 -3.43753,-0.37535 -5.14345,-0.37535c-5.422,0 -11.06271,-0.23727 -16.4562,-0.75852c-1.64549,-0.15903 -3.71363,-0.48565 -5.43939,-1.28093c-3.01461,4.47444 -6.17917,9.24297 -7.40296,14.52974c-0.54788,2.36684 0.1893,5.19646 -0.23468,7.66598c-0.81348,4.73816 -2.77094,7.87335 -4.67992,12.10385c-1.6916,3.74877 -2.31811,7.54182 -4.47454,11.15299c-1.71822,2.21435 -3.35688,4.82216 -5.13784,6.93263c-1.02539,1.21511 -2.24759,2.17406 -3.45314,3.16087c-0.59593,-1.57552 -1.57839,-2.96114 -2.83167,-4.04116c0.87787,-0.71355 1.72744,-1.44768 2.43587,-2.3112c1.68228,-2.05061 3.20459,-4.44205 4.86216,-6.56737c1.99119,-3.29812 2.47392,-6.89128 4.02546,-10.34701c1.75196,-3.9021 3.55126,-6.54092 4.32008,-10.89615c0.45161,-2.5583 -0.29456,-5.33853 0.26532,-7.83402c1.47619,-6.57963 5.60734,-12.5022 9.25956,-17.97877c-0.00977,-0.39297 -0.01643,-0.78447 -0.055,-1.15641c-0.45274,-4.36617 0.16125,-8.81745 -0.18112,-13.20955c-0.07662,-0.06152 -0.1508,-0.1295 -0.22118,-0.20464c-2.67018,-0.39338 -5.36688,-0.80981 -7.49399,-2.57622c-2.77004,-2.30032 -4.0604,-5.72256 -7.22728,-7.79324c-2.26677,-1.48214 -4.80567,-2.29661 -7.37287,-3.01435c-0.23973,-1.23604 -0.48388,-2.43478 -0.64176,-3.53275c-0.04916,-0.34185 -0.07919,-0.66545 -0.09447,-0.97442c0.22502,-0.3421 0.43572,-0.68966 0.62993,-1.03963c3.34762,0.91178 7.47654,2.60408 10.22009,4.3794z" fill="#ededed" stroke="none" stroke-width="0.5"/><path d="M239.38629,136.98883c0.39272,-1.42894 2.0272,-1.69412 2.0272,-1.69412l2.54586,-0.28308c1.36284,0.37029 3.11672,0.08616 4.08855,1.11087c3.81688,4.02453 -0.31916,10.91837 -5.67451,9.68396c-3.48899,-0.80421 -3.52723,-3.6058 -4.1418,-6.13808c0,0 -0.3855,-1.87218 1.1547,-2.67954z" fill="#cecece" stroke="none" stroke-width="0.5"/><path d="M234.70003,69.98152c0.64738,-0.31445 1.31979,-0.31444 1.31979,-0.31444h2.09654c6.41663,0.07455 10.11224,3.57467 14.8195,7.17775c3.97015,4.34539 4.58216,8.24974 5.80329,13.54495c1.76952,7.6732 1.97468,18.38858 -6.80735,22.97992c-3.1438,1.64361 -6.39166,1.13917 -9.80139,0.91925c-6.66369,-0.42979 -11.54758,-1.85733 -17.49684,-4.35344c-9.70789,-7.90443 -6.20309,-22.23445 -1.36965,-31.81068c1.02737,-2.03548 1.70145,-4.32575 3.58062,-5.94821c2.1036,-1.81621 4.97356,-2.17884 7.85548,-2.1951z" fill="url(#color-4)" stroke="none" stroke-width="0.5"/><path d="M196.12258,213.93679c-0.6868,-2.40381 1.71701,-3.09061 1.71701,-3.09061l0.90195,-0.06957c1.63775,-1.25376 3.44759,-2.31637 5.35637,-3.09781c0,0 2.32119,-0.92848 3.24967,1.39272c0.92848,2.32119 -1.39272,3.24967 -1.39272,3.24967c-1.48847,0.57737 -2.89309,1.40969 -4.14363,2.40219l-2.59805,0.93043c0,0 -2.40381,0.6868 -3.09061,-1.71701z" fill="#ededed" stroke="none" stroke-width="0.5"/><g stroke="none"><path d="M188.0628,141.359c0.91646,-1.75922 2.36411,-4.53812 2.83721,-5.44629c0.29663,-0.5694 1.13179,-0.94914 1.68949,-0.65861c1.72986,0.90116 10.79475,5.62346 13.9183,7.25065c0.66357,0.34568 0.72513,1.19256 0.42851,1.76196c-0.47311,0.90817 -1.92076,3.68707 -2.83721,5.44629c-0.46137,0.88565 -1.45391,1.16602 -2.14969,0.80355c-1.84579,-0.96155 -10.2907,-5.36088 -13.46444,-7.01421c-0.75383,-0.39271 -0.88355,-1.2577 -0.42218,-2.14335z" fill="#cf0000" stroke-width="0"/><text transform="translate(188.31127,140.84792) rotate(27.51709) scale(0.1728,0.1728)" font-size="40" xml:space="preserve" fill="#e4e4e4" fill-rule="nonzero" stroke="none" stroke-width="1" stroke-linecap="butt" stroke-linejoin="miter" stroke-miterlimit="10" stroke-dasharray="" stroke-dashoffset="0" font-family="Sans Serif" font-weight="normal" text-anchor="start" style="mix-blend-mode: normal"><tspan x="0" dy="0">NASA</tspan></text></g><path d="M220.27639,173.24998c-1,0 -1,-1 -1,-1l0.29289,-1.20711c1.31603,-1.20097 1.7293,-3.3657 3.4644,-4.41309c1.13959,-0.68792 2.54125,-1.12423 3.75,-1.75c0.96466,-0.4994 1.16188,-2.13487 1.65786,-2.93029c0.67211,-1.07789 1.85621,-1.89714 2.1092,-3.1689c0.807,-4.035 1.68958,-8.1101 2.76262,-12.05006c0.5379,-1.97509 0.33502,-4.50516 1.73545,-6.16657c1.00893,-1.19696 2.89805,-0.81397 4.22757,-0.81397c0,0 1,0 1,1c0,1 -1,1 -1,1c-0.42274,0 -2.43941,-0.32257 -2.77243,0.18603c-0.96494,1.47369 -0.81305,3.68025 -1.26455,5.33343c-1.06417,3.89646 -1.93746,7.95034 -2.73738,11.94994c-0.51781,1.85498 -3.06901,6.39659 -4.73294,7.40081c-1.13367,0.68419 -2.59813,1.14201 -3.75,1.75c-1.45101,0.76587 -1.98999,2.98254 -3.0356,4.08691l0.29289,-0.20711c0,0 0,1 -1,1z" fill="#e5e5e5" stroke="none" stroke-width="0.5"/></g></g></svg>