<svg version="1.1" xmlns="http://www.w3.org/2000/svg" xmlns:xlink="http://www.w3.org/1999/xlink" width="51.29094" height="59.23038" viewBox="0,0,51.29094,59.23038"><g transform="translate(-214.35453,-150.38481)"><g data-paper-data="{&quot;isPaintingLayer&quot;:true}" fill-rule="nonzero" stroke="#000000" stroke-width="2" stroke-linecap="butt" stroke-linejoin="miter" stroke-miterlimit="10" stroke-dasharray="" stroke-dashoffset="0" style="mix-blend-mode: normal"><g><path d="M264.34834,181.04097c2.58761,9.54808 -12.41899,-2.43672 -18.13293,10.58623c-0.21308,0.48564 -0.40772,0.97518 -0.58557,1.46738c-3.20315,-2.23882 -6.73458,-4.05658 -10.38789,-5.39835c-2.09937,-0.77104 -4.41651,-1.12997 -6.6341,-1.71555c-0.18566,-1.03841 -0.53161,-2.02128 -1.01134,-2.92208c5.80117,-12.40568 32.49247,-12.52657 36.825,-1.99209c0.03991,0.09704 -0.07316,-0.02554 -0.07316,-0.02554z" data-paper-data="{&quot;index&quot;:null}" fill="#ffff21"/><path d="M230.26431,178.50244c0,-12.63351 -3.52085,-19.84015 1.625,-25.375c7.31654,-7.86963 14.375,12.74149 14.375,25.375c0,12.63351 -6.99149,27.125 -19.625,27.125c-12.63351,0 3.625,-14.49149 3.625,-27.125z" fill="#ffff85"/><path d="M227.29714,183.10288c1.43389,-14.14886 -17.3445,-10.78158 -10.39352,-17.82043c8.44039,-8.54709 32.22676,5.6629 30.79287,19.81176c-1.43389,14.14886 -12.28447,24.63695 -24.23545,23.4258c-11.95098,-1.21115 2.40221,-11.26826 3.8361,-25.41712z" fill="#ffff21"/></g></g></g></svg>