<svg version="1.1" xmlns="http://www.w3.org/2000/svg" xmlns:xlink="http://www.w3.org/1999/xlink" width="238.28715" height="232.74085" viewBox="0,0,238.28715,232.74085"><g transform="translate(-120.85642,-63.62958)"><g data-paper-data="{&quot;isPaintingLayer&quot;:true}" fill-rule="nonzero" stroke="none" stroke-width="0.5" stroke-linecap="butt" stroke-linejoin="miter" stroke-miterlimit="10" stroke-dasharray="" stroke-dashoffset="0" style="mix-blend-mode: normal"><g><g><path d="M273.00461,187.97591c-1.49239,-1.84392 -0.4026,-4.26184 -0.4026,-4.26184l1.9683,-4.35665c1.62093,-2.85383 3.92789,-7.66748 6.92651,-9.31954c3.32727,-1.83313 7.20772,-5.74736 10.49939,-4.38539c1.4722,0.60915 3.63156,0.81473 4.98298,1.65859c6.42455,4.01161 5.80647,9.24446 9.86454,19.428c0.36556,0.91736 0.76907,3.41249 1.21909,4.38549c-0.05016,2.04333 4.07489,10.67876 2.87631,12.5925c-3.43538,5.48521 -2.23775,13.15142 -5.42557,18.77802c-2.93507,3.52767 -5.5813,7.49546 -8.1385,11.63811c-9.03506,14.63677 -16.95873,31.45623 -32.58408,38.7569c-11.48515,5.36624 -23.41437,-2.41994 -27.96587,-13.17222c-0.79274,-1.87275 -2.18795,-3.72067 -2.04189,-5.74904c0.15929,-2.21228 1.92501,-3.99656 2.8875,-5.99484c0.19205,-0.27282 0.38731,-0.54325 0.58549,-0.81149c0.18935,-0.14323 0.36664,-0.28287 0.52894,-0.41906c1.61594,-1.35601 3.41364,-3.53462 4.88124,-5.97565c3.00409,-3.27193 6.08571,-6.46722 8.55252,-10.07528c5.02042,-7.34307 10.64161,-14.78383 15.78906,-22.51618c3.78699,-5.68871 2.15033,-14.11885 4.99664,-20.20043z" fill="#151515"/><path d="M257.42312,257.55253c1.53222,1.41827 3.09829,2.8324 4.75692,4.20798c2.44504,2.02776 8.58943,6.50216 7.99881,10.11014c-0.33261,2.03193 -10.45233,7.13302 -12.39876,7.20508c-2.04221,0.0756 -3.88562,-1.28929 -5.75184,-2.12211c-6.93057,-3.09286 -12.82128,-8.88294 -16.70148,-15.5242c-0.29119,-0.79213 -0.67774,-1.61954 -1.16833,-2.48383c-0.53568,-1.44045 -1.27113,-2.8102 -2.19366,-4.06358c-1.16427,-4.18577 4.84967,-7.08469 7.3371,-9.17201c0.7046,-0.59126 1.44375,-1.33891 2.17503,-2.19652c0.77423,0.16713 1.55588,0.39508 2.33492,0.68465c4.87842,1.81329 7.57027,5.61698 11.66422,8.47055l0.01194,-0.01695c0,0 3.11326,1.75825 1.93512,4.90081z" fill="#5d5d5d"/></g><g><path d="M304.16243,185.29467c-2.74197,-1.08334 -3.0404,-4.366 -3.0404,-4.366l-0.53263,-5.91765c0.00995,-4.07903 -0.43547,-10.69819 1.79987,-14.31869c2.48034,-4.01731 8.80724,-6.53956 13.20182,-7.07745c1.96548,-0.24057 3.94118,0.41215 5.9194,0.4994c10.25145,0.45211 26.56402,1.44416 32.23903,12.09495c1.19455,2.24189 1.21285,10.13205 1.0854,12.9356c-0.36528,8.03558 -1.55478,15.96197 -1.56574,23.99927c-4.625,25.43752 2.70146,57.03548 -13.26895,79.42492c-9.14926,12.82665 -26.8175,11.69144 -38.31455,2.83732c-2.00246,-1.54215 -4.64171,-2.6892 -5.72334,-4.97353c-1.17969,-2.49143 -0.3594,-5.50151 -0.5391,-8.25225c0.04109,-0.41262 0.08711,-0.8246 0.13763,-1.236c0.11737,-0.27073 0.22391,-0.5302 0.3163,-0.77677c0.91996,-2.45506 1.5339,-5.91142 1.63019,-9.45001c1.25124,-5.37682 2.63323,-10.7181 3.0976,-16.1303c1.6404,-19.1185 5.05956,-39.66166 3.55746,-59.29279z" fill="#2f2f2f"/><path d="M322.72542,271.90827c2.52495,0.59838 5.08399,1.17158 7.71964,1.64648c3.88529,0.70006 13.26925,1.78686 14.83519,6.0523c0.88191,2.4022 -6.95177,14.10739 -9.01411,15.37498c-2.16383,1.32997 -4.99291,0.97956 -7.52148,1.21887c-9.39038,0.88876 -19.30394,-1.77688 -27.56196,-6.59244c-0.79926,-0.67926 -1.72325,-1.33842 -2.78239,-1.9739c-1.46007,-1.23143 -3.09312,-2.26424 -4.85748,-3.0568c-3.81817,-3.81817 0.91824,-10.63088 2.33436,-14.40999c0.40114,-1.07048 0.74408,-2.33132 1.0113,-3.70634c0.94,-0.29232 1.92521,-0.52336 2.94525,-0.68613c6.38755,-1.01926 11.62532,1.45182 17.79973,2.03777l0.00257,-0.02564c0,0 4.44369,0 5.08939,4.12085z" fill="#6c6c6c"/></g><g><path d="M211.91402,148.71338c2.19467,11.52877 6.04773,24.21637 11.85026,34.44986c3.8361,6.76542 9.80628,13.01532 12.04674,20.56528c2.65741,8.95498 0.54084,19.59789 -0.41811,28.58294c-1.0461,9.80157 -0.48908,20.07041 -0.47795,29.94881c-7.58798,4.80793 -16.79219,9.38304 -24.5883,0.80593c-5.84774,-6.43356 -5.94589,-19.85187 -8.2039,-27.7287c-4.35408,-15.18875 -10.04493,-29.9477 -14.5035,-45.11427c-1.98659,-6.75772 -6.01639,-15.57991 -5.75088,-22.72582c0.31325,-8.43067 4.59241,-13.58989 10.5576,-18.72148c1.98279,-1.00206 3.96556,-2.00411 5.94835,-3.00617l4.53422,-1.29838c0,0 1.5658,-0.40905 3.17377,0.10698c4.88219,-0.79146 5.83171,4.13502 5.83171,4.13502z" data-paper-data="{&quot;index&quot;:null}" fill="#343434"/><path d="M240.33742,263.69883c1.58967,3.88024 -2.23662,6.17431 -2.23662,6.17431l-3.99956,2.36806c-5.60114,2.43381 -16.53578,4.37288 -22.40155,1.23926c-0.34775,-0.18578 -0.68054,-0.39132 -1.00061,-0.61364l-0.08305,0.14384l-4.52596,-2.6131c-0.77122,-0.42586 -1.44374,-1.05481 -1.92939,-1.86481c-1.06223,-1.77169 -0.93924,-3.92386 0.13797,-5.53397c-0.03542,-0.47746 -0.00888,-1.00458 0.09619,-1.58621c0.91868,-5.08493 6.00361,-4.16626 6.00361,-4.16626c5.00632,0.94945 8.78852,0.99764 13.7087,-0.56294c2.60096,-0.82497 5.17501,-3.71573 7.71832,-2.7272c6.81739,2.64978 9.2217,6.14342 8.51195,9.74265z" fill="#5d5d5d"/></g><g fill="#2f2f2f"><path d="M171.76548,140.35922l-1.09542,-4.98825l0.57465,-0.1262l-0.69429,-1.06301c0.31707,-1.34394 0.67397,-2.65878 1.06443,-3.95144c0.23397,-3.89353 1.418,-9.60638 1.7055,-10.55997c1.28905,-4.27567 4.73164,-12.67329 7.48304,-16.19177c1.32138,-1.68979 3.1141,-2.96139 4.78863,-4.33273c1.92991,-3.24759 4.10549,-6.42883 6.55895,-9.27768c0.93103,-1.59444 2.0128,-3.08648 3.55471,-4.25689c0.59445,-0.45123 1.24986,-0.79503 1.93729,-1.08275c2.93923,-2.33146 6.19711,-4.11501 9.80886,-5.05968c3.68042,-0.96262 7.52808,-0.66983 11.37311,-0.28066c3.76814,-0.11687 7.45916,0.24674 11.11115,0.96365c20.5568,2.41693 40.42337,12.40127 59.11934,21.09967c15.3827,4.26314 30.83986,8.44048 43.91307,17.84403c10.28204,7.39586 16.19781,17.90709 23.65775,27.84083l1.91807,5.62986c0,0 0.10382,0.37896 0.1497,0.9565c1.84355,8.60103 -2.35314,16.79344 -5.8773,24.48473c-7.61982,16.62987 -22.94456,34.37617 -42.17073,34.53719c-5.50502,1.9766 -11.4072,3.77564 -17.12754,3.77274c-10.78192,-0.00546 -22.75154,-4.71278 -32.36668,-9.08096c-10.43961,-4.74273 -22.15346,-8.65048 -31.93975,-14.57041c-10.94273,-6.61949 -20.50639,-15.36532 -31.29206,-22.28007c-7.61958,-6.07746 -15.45353,-13.02517 -21.61157,-20.55549l-2.60918,-3.60802c0,0 -1.27053,-1.76353 -1.01978,-3.82708c-0.44974,-0.6054 -0.76103,-1.30186 -0.91396,-2.03615z"/><path d="M242.61377,98.42241c1.31417,0.78741 11.27539,6.66922 11.78194,7.38005c2.5882,3.63195 3.11866,7.01135 2.28439,10.05543c1.3822,1.18795 3.01593,2.13809 4.09337,3.59923c4.22316,5.72715 6.72764,19.05952 -0.84436,24.04045c-2.65753,1.74814 -6.45951,0.79537 -9.54285,0.0134c-4.89187,-1.24063 -10.01345,-6.7814 -13.74334,-12.66649c-1.63358,0.45987 -3.19744,0.79577 -4.61414,0.99848c-12.62157,1.80597 -27.43315,0.18535 -39.94944,-1.01288c-3.824,-0.36608 -8.94433,0.79302 -12.55483,-0.98934c-1.63964,-0.80943 -3.19832,-2.07083 -4.67386,-3.579l-2.41442,-1.60721c-6.06445,-8.09834 -13.59917,-15.58878 -15.43504,-26.04201c-2.06671,-11.76755 2.63766,-32.0914 16.47911,-34.82933c2.92083,-0.57776 5.92074,0.63674 8.87959,0.96886c12.88812,1.44666 27.25167,9.65357 35.14194,19.83911c8.00433,1.68144 15.08067,6.29312 21.39332,11.96983c1.2396,0.62039 2.47914,1.24086 3.71864,1.86144zM241.71289,114.43198c0.14449,0.85053 0.31798,1.6472 0.52488,2.41276c0.38694,-0.15911 0.78149,-0.31256 1.17303,-0.46954c-0.56214,-0.65133 -1.12784,-1.29952 -1.6979,-1.94321zM247.56229,127.52588c1.54116,2.44194 3.75871,4.4515 6.07529,6.17536c0.35098,0.26119 0.61268,1.44607 0.79166,1.04685c1.91174,-4.26387 -1.12312,-7.70591 -4.01385,-10.56374c-1.0854,0.83701 -2.25932,1.61598 -3.48634,2.3327c0.20423,0.32749 0.41524,0.66341 0.63325,1.00884z"/></g><g><path d="M253.33289,185.41556c-0.87165,1.88666 -3.0817,5.2944 -3.0817,5.2944c-1.94273,7.83715 -3.83196,14.65222 -11.6293,16.48855c-7.55977,1.78037 -14.09139,13.87182 -21.43812,16.56617c-8.76431,3.21422 -29.66528,11.1084 -39.05743,12.37628c-5.49465,0.74175 -10.77393,-1.12278 -16.19977,-1.21664c-5.58507,-0.09663 -11.3599,0.27874 -16.88931,1.01987c-2.92069,0.09213 -6.39963,1.99622 -8.76206,0.27639c-5.88489,-4.28418 -4.37953,-10.61612 -3.80602,-16.09399c1.03294,-9.86603 2.66085,-20.0026 12.29303,-25.63155c3.80417,-2.22312 8.69047,-1.48198 13.06548,-2.00463c5.96087,-0.7121 11.19336,-0.95801 17.16528,-1.2297c7.64066,-0.34762 15.77787,-3.74318 23.37813,-4.9883c10.09074,-1.65313 23.86603,-19.59478 33.97288,-18.43635c11.3518,1.31144 26.77467,-7.8561 21.54465,10.31153c-0.67227,2.33525 0.14314,3.1575 -1.41464,5.0226z" fill="#292929"/><path d="M152.04474,215.93247c0.27641,1.98547 1.55075,3.81916 1.5023,5.82319c-0.19262,7.96655 -7.04614,21.66952 -18.0388,16.66242c-7.1524,-3.25789 -5.48656,-9.50179 -4.99104,-14.87446c1.17204,-12.70803 1.7978,-22.76858 12.42568,-30.24343l0.15774,-0.36737c1.35414,0.05207 2.73983,-0.00695 4.12446,-0.15566c1.95596,-0.21009 4.20221,-0.40858 6.22982,-1.01236c0.22271,0.68372 0.30553,1.4251 0.2183,2.18619l-0.68616,5.98642c-0.13106,5.13273 -1.64865,10.92129 -0.94229,15.99505z" fill="#5d5d5d"/></g><g><g><path d="M157.06364,69.88164c0.56637,0 1.11147,0.09113 1.62141,0.25951c5.38298,-1.71261 12.3208,-1.271 16.85172,0.317l0.40742,0.02357c4.27814,0.78396 8.69297,3.78964 12.95493,4.65736c12.27328,2.49879 15.77608,0.44842 24.9231,8.66871c3.08826,3.49721 6.80562,6.87734 8.05442,11.6474c0.60394,2.3069 0.23034,4.76843 0.16235,7.1521c-0.24495,8.58789 -3.82172,14.18667 -9.64067,20.9076c-3.66801,4.23658 -8.06483,5.22003 -11.69832,9.60515c-3.04601,3.67611 -1.1696,15.17082 -3.75307,19.11302c-3.45801,5.27668 -3.66419,8.4272 -10.25063,12.35758c-3.08345,1.84 -4.98622,7.04791 -8.53838,7.57278c-3.97392,0.58719 -7.85038,2.09482 -11.86745,2.09644c-5.20976,0.00211 -6.8109,-1.30447 -11.87427,-2.80126c-7.83961,-2.44249 -13.3615,-5.39826 -16.76967,-13.42055c-0.79686,-1.87571 -1.37058,-18.1114 -2.40584,-20.26206c-2.60787,-5.41761 -5.4323,-7.63272 -7.06034,-13.82716c-2.16049,-8.2203 -7.2808,-9.42595 -6.89352,-17.63711c0.4974,-10.5461 2.08177,-17.7613 10.88393,-25.29794c0.47561,-4.41473 5.12814,-4.41473 5.12814,-4.41473l4.0462,-3.0825c0.03974,0.00334 0.07946,0.00667 0.1192,0.00999c0.66352,-0.08474 1.45939,-0.08085 2.25685,0.17316c1.11388,0.07765 2.30771,-0.17248 3.51932,-0.50619c0.41886,-0.35958 0.89596,-0.65324 1.41523,-0.86485c1.92508,-1.40924 4.42012,-2.27005 6.67565,-2.14951c0.54153,-0.19264 1.12466,-0.29753 1.7323,-0.29753z" fill="#1d1d1d"/><path d="M141.30479,92.64001l1.32173,-2.8298c2.25758,-1.87799 4.03647,-4.56794 6.77272,-5.63399c2.6635,-1.0377 5.71069,-0.28793 8.56867,-0.343c14.3241,-0.27603 27.84459,1.67568 40.31453,8.96565c5.73724,3.35401 12.55994,9.46789 11.86961,17.10061c-1.14144,12.62026 -8.78699,8.67664 -16.33044,13.04731c-2.08781,1.20968 -0.9186,4.73876 -1.28999,7.12294c-0.69206,4.44272 -2.70059,8.65083 -4.92887,12.55614c-3.98441,2.78201 -11.45223,9.94828 -16.23066,10.86703c-3.9864,0.76646 -10.83728,-2.18194 -14.17972,-4.07182c-2.37329,-1.3419 -5.38762,-2.23241 -6.77831,-4.57744c-2.57698,-4.34539 -0.18454,-14.73775 0.99001,-19.37269c0.5457,-2.15342 2.76302,-4.58684 1.58843,-6.4724c-1.42327,-2.28476 -4.60831,-0.87352 -6.38499,-1.0866c-5.1508,-0.61774 -11.95218,-2.05977 -13.75754,-8.36338c-2.20141,-7.68645 5.29846,-11.56763 8.45483,-16.90856z" fill="#151515"/></g><path d="M161.30958,104.57463c-2.31892,1.15946 -3.91065,0.13736 -4.7752,-0.78593c-0.67893,0.1889 -1.20729,0.1889 -1.20729,0.1889c-0.85424,-0.05865 -1.70849,-0.11731 -2.56273,-0.17596l-2.74629,1.96164c-0.68419,0.50168 -1.52843,0.79794 -2.44187,0.79794c-2.28304,0 -4.1338,-1.85076 -4.1338,-4.1338c0,-0.82766 0.24323,-1.59851 0.66213,-2.24496l2.54985,-4.07976l0.3992,0.2495c0.296,-0.59816 0.65555,-1.16066 1.10232,-1.67419c1.25417,-1.4416 8.8297,-0.21031 10.78427,0.03043l4.2181,4.32009c0,0 1.84869,3.69738 -1.8487,5.54608z" fill="#0a0a0a"/><path d="M149.12639,103.9776c0,-2.28303 1.85076,-4.1338 4.1338,-4.1338c2.28304,0 4.1338,1.85077 4.1338,4.1338c0,2.28303 -1.85077,4.1338 -4.1338,4.1338c-2.28304,0 -4.1338,-1.85077 -4.1338,-4.1338z" fill="#000000"/><path d="M193.34655,108.1917c-3.69738,1.84869 -5.54608,-1.84869 -5.54608,-1.84869l2.14721,-0.81524c-1.55722,-0.19201 -3.33237,0.66325 -4.31112,1.88958c0,0 -2.92304,2.92305 -5.84609,0c-2.92305,-2.92305 0,-5.84607 0,-5.84607c2.73416,-2.46021 6.48469,-4.10892 10.1572,-4.31111l5.24756,5.38545c0,0 1.84869,3.69738 -1.84869,5.54608z" fill="#0a0a0a"/><path d="M182.71353,106.0445c0,-2.28303 1.85076,-4.1338 4.1338,-4.1338c2.28304,0 4.1338,1.85076 4.1338,4.1338c0,2.28303 -1.85077,4.1338 -4.1338,4.1338c-2.28304,0 -4.1338,-1.85077 -4.1338,-4.1338z" fill="#000000"/><path d="M175.04296,117.11394c0.87005,1.74009 0.51168,3.07072 -0.11154,3.99188c0.85603,3.76807 1.71117,8.99433 -1.74266,11.06858c-7.39713,4.44246 -12.03748,-3.78616 -12.16441,-8.89236c-0.04917,-1.97798 1.73218,-3.55793 2.59828,-5.33689c0,0 1.91248,-3.34683 5.27573,-1.72995l0.59852,-0.94995c0,0 3.69738,-1.84869 5.54608,1.84869z" fill="#1f1f1f"/><path d="M163.33633,125.7834c0,-1.14152 0.92538,-2.0669 2.0669,-2.0669c1.14152,0 2.0669,0.92538 2.0669,2.0669c0,0.24209 -0.04162,0.47445 -0.1181,0.69033c0.4513,0.37915 0.73817,0.94771 0.73817,1.58326c0,1.14152 -0.92538,2.0669 -2.0669,2.0669c-0.89342,0 -1.65445,-0.56685 -1.94305,-1.36051c-0.57183,-0.36765 -0.95061,-1.00951 -0.95061,-1.73984c0,-0.34015 0.08217,-0.6611 0.22773,-0.9441c-0.01387,-0.09668 -0.02104,-0.19553 -0.02104,-0.29604z" fill="#080808"/><path d="M170.98387,123.7165c2.0669,0 2.0669,2.0669 2.0669,2.0669l-0.04014,-0.19866c0.1378,0.68896 0.27559,1.37794 0.41338,2.0669c0,0 0.40536,2.02676 -1.62141,2.43211c-0.32292,0.06458 -0.60468,0.06743 -0.8502,0.02657c-1.02935,-0.11809 -1.82874,-0.99235 -1.82874,-2.05333c0,-0.17629 0.02206,-0.34743 0.06359,-0.5108c-0.07672,-0.38358 -0.15344,-0.76717 -0.23015,-1.15076l-0.04013,-0.61204c0,0 0,-2.0669 2.0669,-2.0669z" fill="#080808"/><path d="M181.12637,148.50463c1.46152,1.46152 0,2.92304 0,2.92304l-1.4912,1.37873c-0.9837,0.54251 -1.84735,1.06073 -2.6335,1.52477c-0.22597,0.49932 -0.64461,0.89282 -1.16108,1.08567l-2.0222,0.80888c0,0 -0.70999,0.284 -1.43901,0.07466c-0.74024,0.07676 -1.50419,-0.00276 -2.35383,-0.28214l-0.05267,0.00479l-0.20302,0.67674l-1.37891,-0.41367c-0.63508,0.36158 -1.35578,0.28151 -1.35578,0.28151l-2.0017,-0.22739c-4.32452,-0.80733 -7.5136,-2.8759 -11.11128,-5.27436c0,0 -1.71976,-1.14651 -0.57325,-2.86628c1.14651,-1.71976 2.86628,-0.57326 2.86628,-0.57326c3.1035,2.069 5.82005,3.9892 9.55773,4.64677l1.32457,0.14334c0.2959,-0.21118 0.64982,-0.34629 1.03322,-0.37679l2.10199,-0.19109c0.80288,-0.22121 1.63526,-0.23133 2.47217,-0.11224c0.02119,-0.01306 0.04246,-0.02609 0.0638,-0.0391l0.04031,-0.48378l0.69716,0.0581c1.44422,-0.794 3.06419,-1.48766 4.12143,-2.07872l0.5757,-0.68818c0,0 1.46152,-1.46152 2.92304,0z" fill="#080808"/></g><g data-paper-data="{&quot;index&quot;:null}"><path d="M162.04372,188.94865c-8.80094,5.1365 -27.40947,-4.71547 -24.72648,-15.69027c-0.03573,-0.37139 0.01823,-0.65069 0.01823,-0.65069l0.3026,-1.52852c0.43768,-1.55219 0.80829,-3.12351 1.14554,-4.70057c4.09276,-5.58092 8.92755,-10.36261 13.10631,-15.81287c0.48202,-0.62869 0.97598,-1.35111 1.49057,-2.1088c0.77876,1.75788 1.99612,3.35138 3.62886,4.60425c3.97737,3.05201 9.26932,3.19991 13.32782,0.7791c0.27741,0.25842 0.56966,0.50597 0.87659,0.74149c1.91058,1.46607 4.1245,2.26202 6.35932,2.42504c0.17194,7.57337 -4.4742,13.85033 -8.58702,21.15374c-1.86907,3.31903 -3.20908,6.9056 -5.52061,9.94578c0,0 -0.56089,0.73095 -1.42172,0.84232z" fill="#f3e5bd"/><path d="M142.93801,164.62161l1.83916,0.2594c6.96401,1.73259 14.59181,8.12662 17.2299,15.29144c0.23636,0.30624 0.4697,0.6182 0.70015,0.93614c0.28039,0.09148 0.56439,0.16629 0.85057,0.22463c0.3387,0.39132 0.72186,0.75437 1.14851,1.08176c0.18912,0.14513 0.38281,0.28018 0.58041,0.40526c-0.10303,0.58535 -0.43065,1.01231 -0.43065,1.01231l-0.62913,0.81988c-0.00511,0.00659 -0.01023,0.01317 -0.01535,0.01977c0.09754,0.55119 -0.02781,1.13992 -0.39542,1.619c-0.39502,0.51479 -0.98475,0.79214 -1.58652,0.80801c-5.49883,6.42341 -14.39079,14.44878 -22.22708,14.2358c-7.563,-0.20556 -13.81408,-9.46666 -9.16998,-15.60325c3.67158,-4.53361 3.00275,-14.10346 9.47107,-17.17707c0.32165,-0.15284 0.61749,-0.28015 0.89179,-0.38383c-0.39332,-0.34483 -0.70441,-0.89862 -0.58434,-1.78019c0.27892,-2.04799 2.32692,-1.76906 2.32692,-1.76906z" fill="#fad564"/><path d="M151.83849,187.10864c0.61633,-0.76287 1.24529,-1.50966 1.92383,-2.19947c-1.05231,-1.71671 0.66029,-2.80844 0.66029,-2.80844c3.64893,-2.31921 8.40202,-2.76159 9.75449,0.14248c0.90702,0.87518 1.35971,2.37427 1.25789,4.57183c-0.04585,0.98952 -0.40651,1.939 -0.60977,2.9085c-3.01067,3.92351 -5.34756,8.75736 -8.54776,12.92787l-0.9437,1.22983c0,0 -0.2686,0.35003 -0.71932,0.60255c-5.0776,8.54599 -5.54592,16.44895 -4.96417,27.23572c0.17998,3.33712 -0.43713,5.07768 1.09606,8.32604c-0.07754,7.04488 7.39762,12.34453 8.08917,19.39162c0.55737,5.67971 -5.9259,9.21599 -10.84623,7.71486c-4.55545,-1.38982 -9.81313,-6.70619 -13.53904,-9.67376c-4.96857,-9.72138 -12.54954,-19.92091 -13.25911,-31.23154c-0.3038,-4.84269 1.07586,-11.97589 -0.33469,-16.5399c0.95188,-5.2546 1.0248,-10.46963 2.52152,-15.72939c3.32829,-11.69625 10.27985,-22.68423 16.22422,-33.24652c2.06,-2.6952 8.74155,-14.61133 11.39643,-5.61273c0.44865,1.52067 -3.13538,7.6016 -3.86694,9.27123c-3.50636,8.00254 -9.03,15.25883 -10.73052,24.06013c-0.45649,1.05165 -1.94195,4.03856 -1.43086,5.29157c1.34582,3.29944 9.32652,0.48968 11.36495,-0.86694c0.49303,-0.32812 0.95436,-0.69053 1.39196,-1.0784c0.09504,-0.73135 0.60393,-1.26126 0.60393,-1.26126l1.42604,-1.47373c0.73947,-0.64695 1.42697,-1.2923 2.08131,-1.95216z" fill="#ffce39"/></g></g></g></g></svg>
