<svg version="1.1" xmlns="http://www.w3.org/2000/svg" xmlns:xlink="http://www.w3.org/1999/xlink" width="85.34511" height="79.35427" viewBox="0,0,85.34511,79.35427"><g transform="translate(-197.32746,-140.32288)"><g data-paper-data="{&quot;isPaintingLayer&quot;:true}" fill-rule="nonzero" stroke-linejoin="miter" stroke-miterlimit="10" stroke-dasharray="" stroke-dashoffset="0" style="mix-blend-mode: normal"><g><g stroke="#000000" stroke-width="2" stroke-linecap="butt"><g><g><path d="M273.5325,170.58021c-6.2285,1.80412 -12.9553,-2.52508 -15.02473,-9.66954c-2.06943,-7.14446 1.30216,-14.39871 7.53066,-16.20283c6.2285,-1.80412 12.9553,2.52508 15.02473,9.66954c2.06943,7.14446 -1.30216,14.39871 -7.53066,16.20283z" data-paper-data="{&quot;index&quot;:null}" fill="#ffdc99"/><path d="M260.40479,157.97407c0,-4.57731 3.71064,-8.28796 8.28796,-8.28796c4.57731,0 8.28796,3.71064 8.28796,8.28796c0,4.57731 -3.71064,8.28796 -8.28796,8.28796c-4.57731,0 -8.28796,-3.71064 -8.28796,-8.28796z" fill="#debf85"/></g><g><path d="M198.93687,154.14716c2.06943,-7.14446 8.79623,-11.47366 15.02473,-9.66954c6.2285,1.80412 9.6001,9.05837 7.53067,16.20283c-2.06943,7.14446 -8.79624,11.47366 -15.02474,9.66954c-6.2285,-1.80412 -9.6001,-9.05837 -7.53066,-16.20283z" fill="#ffdc99"/><path d="M203.69514,157.29822c0,-4.57731 3.71064,-8.28796 8.28796,-8.28796c4.57731,0 8.28796,3.71064 8.28796,8.28796c0,4.57731 -3.71064,8.28796 -8.28796,8.28796c-4.57731,0 -8.28796,-3.71064 -8.28796,-8.28796z" fill="#debf85"/></g></g><path d="M207.08097,180.00001c0,-19.73084 12.44399,-36.01091 28.52221,-38.38055c1.32821,-0.19575 2.68122,-0.29658 4.05407,-0.29658c1.64532,0 3.26215,0.14482 4.84195,0.42431c15.69505,2.77669 27.73433,18.84549 27.73433,38.25283c0,21.36079 -14.58489,38.67713 -32.57627,38.67713c-17.99138,0 -32.57627,-17.31634 -32.57627,-38.67713z" fill="#9c4800"/></g><g><path d="M222.463,183.98051c0,-5.88566 -9.54176,-11.36513 -6.54944,-15.9526c3.36568,-5.15986 8.31685,-9.19124 14.16221,-11.40283c3.21588,-1.21672 6.70242,4.33333 10.34448,4.33333c4.14507,0 8.08868,-5.35341 11.66112,-3.79798c4.71441,2.05263 8.78243,5.31188 11.81407,9.38774c3.6205,4.86755 -6.66905,10.89976 -6.66905,17.43234c0,4.26737 7.09087,8.32123 6.72518,11.97638c-1.01808,10.17594 -11.65095,17.2617 -23.53132,17.2617c-12.25866,0 -21.54901,-7.5442 -22.76241,-18.24303c-0.38495,-3.39423 4.80517,-7.10596 4.80517,-10.99505z" fill="#ffdc99" stroke="#000000" stroke-width="2" stroke-linecap="butt"/><path d="M235.51071,183.22309c0,-2.47938 2.00993,-4.48931 4.48931,-4.48931c2.47938,0 4.48931,2.00993 4.48931,4.48931c0,2.47938 -2.00993,4.48931 -4.48931,4.48931c-2.47938,0 -4.48931,-2.00993 -4.48931,-4.48931z" fill="#9c4800" stroke="#000000" stroke-width="2" stroke-linecap="butt"/><path d="M255.22023,196.20604c0,0 -10.32216,8.51818 -15.42481,8.51818c-5.02592,0 -14.96437,-8.51818 -14.96437,-8.51818" fill="none" stroke="#000000" stroke-width="2" stroke-linecap="round"/><g stroke-linecap="butt"><g><path d="M248.9394,176.34218c-2.79725,0 -5.06486,-2.73145 -5.06486,-6.10086c0,-3.36941 2.26762,-6.10086 5.06486,-6.10086c2.79725,0 5.06486,2.73145 5.06486,6.10086c0,3.36941 -2.26762,6.10086 -5.06486,6.10086z" data-paper-data="{&quot;index&quot;:null}" fill="#ffffff" stroke="#000000" stroke-width="2"/><path d="M246.52428,172.93369c0,-1.38071 1.11929,-2.5 2.5,-2.5c1.38071,0 2.5,1.11929 2.5,2.5c0,1.38071 -1.11929,2.5 -2.5,2.5c-1.38071,0 -2.5,-1.11929 -2.5,-2.5z" fill="#000000" stroke="none" stroke-width="0.5"/></g><g><path d="M226.4426,170.07596c0,-3.36941 2.26762,-6.10085 5.06486,-6.10085c2.79725,0 5.06486,2.73145 5.06486,6.10085c0,3.36941 -2.26762,6.10086 -5.06486,6.10086c-2.79725,0 -5.06486,-2.73145 -5.06486,-6.10086z" fill="#ffffff" stroke="#000000" stroke-width="2"/><path d="M228.90736,172.70347c0,-1.38071 1.11929,-2.5 2.5,-2.5c1.38071,0 2.5,1.11929 2.5,2.5c0,1.38071 -1.11929,2.5 -2.5,2.5c-1.38071,0 -2.5,-1.11929 -2.5,-2.5z" fill="#000000" stroke="none" stroke-width="0.5"/></g></g></g></g></g></g></svg>